<?xml version="1.0" encoding="iso-8859-1"?>
<!-- Generator: Adobe Illustrator 16.0.0, SVG Export Plug-In . SVG Version: 6.00 Build 0)  -->
<!DOCTYPE svg PUBLIC "-//W3C//DTD SVG 1.1//EN" "http://www.w3.org/Graphics/SVG/1.1/DTD/svg11.dtd">
<svg version="1.1" id="Capa_1" xmlns="http://www.w3.org/2000/svg" xmlns:xlink="http://www.w3.org/1999/xlink" x="0px" y="0px"
	 width="46.315px" height="46.315px" viewBox="0 0 46.315 46.315" style="enable-background:new 0 0 46.315 46.315;"
	 xml:space="preserve">
<g>
	<path d="M46.315,21.468v7.396c0,1.381-1.074,2.498-2.433,2.594v9.802c0,1.729-1.404,3.135-3.136,3.135
		c-0.983,0-1.862-0.454-2.438-1.163c-0.572,0.709-1.452,1.163-2.438,1.163c-1.732,0-3.135-1.403-3.135-3.135v-9.804
		c-1.357-0.094-2.432-1.213-2.432-2.594v-4.871c-0.422,0.387-0.971,0.629-1.574,0.672v9.802c0,1.729-1.404,3.135-3.135,3.135
		c-0.984,0-1.863-0.454-2.438-1.164c-0.574,0.71-1.453,1.164-2.438,1.164c-1.731,0-3.135-1.403-3.135-3.135v-9.802
		c-0.607-0.043-1.152-0.285-1.574-0.672v4.871c0,1.381-1.074,2.5-2.432,2.594v9.803c0,1.729-1.404,3.135-3.135,3.135
		c-0.984,0-1.863-0.453-2.438-1.164c-0.573,0.711-1.452,1.164-2.438,1.164c-1.731,0-3.135-1.404-3.135-3.135v-9.803
		C1.078,31.362,0,30.243,0,28.862v-7.396c0-1.442,1.17-2.612,2.613-2.612h0.912c-0.975-1.077-1.574-2.501-1.574-4.068
		c0-3.354,2.721-6.072,6.074-6.072s6.072,2.719,6.072,6.072c0,1.567-0.599,2.991-1.572,4.068h0.869c0.68,0,1.293,0.266,1.756,0.689
		v-4.871c0-1.443,1.17-2.612,2.613-2.612h0.912c-0.976-1.077-1.574-2.501-1.574-4.068c0-3.354,2.721-6.072,6.074-6.072
		s6.071,2.719,6.071,6.072c0,1.567-0.6,2.991-1.57,4.068h0.867c1.443,0,2.613,1.169,2.613,2.612v4.871
		c0.463-0.425,1.075-0.689,1.756-0.689h0.912c-0.977-1.077-1.574-2.501-1.574-4.068c0-3.354,2.721-6.072,6.074-6.072
		s6.07,2.719,6.07,6.072c0,1.567-0.598,2.991-1.57,4.068h0.869C45.145,18.854,46.315,20.024,46.315,21.468z"/>
</g>
<g>
</g>
<g>
</g>
<g>
</g>
<g>
</g>
<g>
</g>
<g>
</g>
<g>
</g>
<g>
</g>
<g>
</g>
<g>
</g>
<g>
</g>
<g>
</g>
<g>
</g>
<g>
</g>
<g>
</g>
</svg>
