<?xml version="1.0" encoding="iso-8859-1"?>
<!-- Generator: Adobe Illustrator 19.0.0, SVG Export Plug-In . SVG Version: 6.00 Build 0)  -->
<svg xmlns="http://www.w3.org/2000/svg" xmlns:xlink="http://www.w3.org/1999/xlink" version="1.1" id="Layer_1" x="0px" y="0px" viewBox="0 0 512 512" style="enable-background:new 0 0 512 512;" xml:space="preserve" width="512" height="512">
<g>
	<g>
		<path style="fill-rule:evenodd;clip-rule:evenodd;fill:#B0E7F8;" d="M126.171,306.876c-59.538,7.645-113.663,44.605-116.1,111.075    c37.405,12.79,79.486,19.871,122.079,21.22l-8.87-24.424l14.736-76.083l-11.732-31.761    C126.257,306.904,126.2,306.904,126.171,306.876L126.171,306.876z"/>
	</g>
	<g>
		<path style="fill-rule:evenodd;clip-rule:evenodd;fill:#F9F9F9;" d="M161.225,338.665l-11.619-0.029l-11.589,0.029l-14.736,76.083    l8.87,24.424c5.837,0.197,11.647,0.282,17.456,0.253c5.838,0.029,11.647-0.056,17.456-0.253l8.898-24.424L161.225,338.665z"/>
	</g>
	<g>
		<path style="fill-rule:evenodd;clip-rule:evenodd;fill:#B0E7F8;" d="M230.482,325.089c-17.285-9.528-37.065-15.599-57.525-18.213    l-11.732,31.789l14.735,76.083l-8.898,24.424c42.619-1.349,84.702-8.431,122.107-21.22c-0.566-15.233-3.826-28.921-9.266-41.036    C269.758,354.235,252.076,336.95,230.482,325.089L230.482,325.089z"/>
	</g>
	<g>
		<path style="fill-rule:evenodd;clip-rule:evenodd;fill:#C6C4C8;" d="M149.295,310.614c-7.793-0.056-15.558-1.35-23.01-3.711    l11.732,31.761l11.589-0.029l11.619,0.029l11.732-31.789C165.306,309.35,157.286,310.67,149.295,310.614L149.295,310.614z"/>
	</g>
	<g>
		<path style="fill-rule:evenodd;clip-rule:evenodd;fill:#FFD4BE;" d="M226.316,212.58h-61.096    c-30.293,0-37.037-10.146-51.603-24.649c-12.779,24.818-25.986,24.677-41.344,24.677v28.697c0,30.299,24.37,56.212,53.898,65.572    l0.113,0.028c7.453,2.361,15.217,3.654,23.01,3.711c7.991,0.056,16.011-1.265,23.662-3.738c7.254-2.333,14.197-5.706,20.544-9.893    c19.158-12.677,32.815-32.997,32.815-55.679V212.58z"/>
	</g>
	<g>
		<path style="fill-rule:evenodd;clip-rule:evenodd;fill:#ADAAAF;" d="M226.316,212.58c10.4-116.641-154.043-106.382-154.043-17.455    v17.482c15.358,0,28.565,0.141,41.344-24.677c14.566,14.503,21.31,24.649,51.603,24.649H226.316z"/>
	</g>
	<g>
		<path style="fill-rule:evenodd;clip-rule:evenodd;fill:#F9F9F9;" d="M373.956,283.07h-11.591h-11.59l-14.763,76.083l8.897,24.452    c5.809,0.169,11.647,0.253,17.456,0.226c5.81,0.028,11.647-0.057,17.457-0.226l8.898-24.452L373.956,283.07z"/>
	</g>
	<g>
		<path style="fill-rule:evenodd;clip-rule:evenodd;fill:#52CBF0;" d="M501.929,362.358    c-2.466-66.499-56.647-103.458-116.213-111.076l-11.76,31.788l14.764,76.083l-8.898,24.452    C422.413,382.228,464.523,375.146,501.929,362.358L501.929,362.358z"/>
	</g>
	<g>
		<path style="fill-rule:evenodd;clip-rule:evenodd;fill:#C6C4C8;" d="M385.716,251.282c-7.651,2.473-15.671,3.795-23.69,3.738    c-7.765-0.028-15.558-1.349-23.01-3.682l11.76,31.732h11.59h11.591L385.716,251.282z"/>
	</g>
	<g>
		<path style="fill-rule:evenodd;clip-rule:evenodd;fill:#ADAAAF;" d="M439.076,156.986c0-110.739-154.072-114.365-154.072,0.028    h32.956c12.072-0.028,40.892-18.044,43.102-28.725c4.137,10.174,17.54,28.697,47.861,28.697H439.076z"/>
	</g>
	<g>
		<path style="fill-rule:evenodd;clip-rule:evenodd;fill:#52CBF0;" d="M338.931,251.31c-47.296,6.071-91.162,30.608-108.448,73.779    c21.593,11.861,39.276,29.146,49.421,51.827c21.168,3.74,43.016,5.988,65.006,6.69l-8.897-24.452l14.763-76.083l-11.76-31.732    C338.987,251.31,338.959,251.31,338.931,251.31L338.931,251.31z"/>
	</g>
	<g>
		<path style="fill-rule:evenodd;clip-rule:evenodd;fill:#FFD4BE;" d="M338.931,251.31h0.028H338.931z M361.063,128.289    c-2.211,10.68-31.03,28.697-43.102,28.725h-32.956v28.725c0,30.27,24.398,56.185,53.926,65.571h0.028l0.057,0.029    c7.452,2.332,15.245,3.654,23.01,3.682c8.019,0.057,16.039-1.265,23.69-3.738c7.253-2.333,14.197-5.706,20.545-9.893    c19.156-12.676,32.815-32.997,32.815-55.65v-28.753h-30.152C378.603,156.986,365.2,138.463,361.063,128.289L361.063,128.289z"/>
	</g>
	<g>
		<path style="fill-rule:evenodd;clip-rule:evenodd;fill:#647B98;" d="M338.931,251.31h0.028H338.931z"/>
	</g>
	<g>
		<path d="M471.84,277.138c-15.296-13.289-34.744-23.511-56.395-29.883c21.18-15.478,33.701-38.183,33.701-61.516v-28.753    c0-62.031-44.285-94.485-88.03-94.485c-22.709,0-43.821,8.464-59.448,23.833c-17.491,17.204-26.736,41.645-26.736,70.68v28.725    c0,20.947,9.749,40.97,27.454,56.38c2.103,1.831,4.289,3.563,6.544,5.194c-37.78,11.142-67.44,33.841-83.226,64.135    c-7.303-3.371-15.01-6.245-23.016-8.601c21.177-15.478,33.698-38.193,33.698-61.542v-28.406    c2.396-28.275-4.677-52.347-20.492-69.634c-15.463-16.9-39.08-26.595-64.796-26.595c-22.181,0-44.165,7.276-60.314,19.961    c-18.432,14.477-28.582,35.251-28.582,58.494v17.482v28.697c0,20.947,9.745,40.971,27.44,56.382    c2.107,1.835,4.297,3.57,6.557,5.205c-9.466,2.795-18.504,6.335-27.043,10.607c-4.974,2.489-6.989,8.538-4.5,13.512    c1.766,3.527,5.321,5.566,9.015,5.566c1.514,0,3.052-0.344,4.499-1.067c12.625-6.316,26.556-10.824,41.5-13.452l7.926,21.456    l-14.202,73.319c-0.346,1.79-0.201,3.64,0.421,5.352l3.705,10.202c-34.154-2.2-67.24-8.189-96.86-17.553    c1.072-10.253,3.572-19.955,7.464-28.926c2.213-5.102-0.129-11.032-5.232-13.245c-5.102-2.213-11.034,0.129-13.247,5.232    c-5.83,13.44-9.072,28.14-9.638,43.691c-0.161,4.438,2.604,8.458,6.806,9.896c37.532,12.832,80.763,20.354,125.019,21.756    c0.009,0,0.018,0,0.026,0c5.923,0.2,11.914,0.287,17.698,0.258c0.747,0.004,1.494,0.005,2.244,0.005    c5.177,0,10.395-0.088,15.54-0.263c0.014,0,0.027,0,0.041,0c44.274-1.4,87.515-8.924,125.047-21.756    c4.205-1.439,6.97-5.462,6.806-9.902c-0.361-9.763-1.786-19.152-4.221-28.097c16.279,2.249,32.888,3.657,49.577,4.19    c0.006,0,0.012,0,0.018,0c0.003,0,0.007,0.001,0.01,0.001c5.362,0.155,10.595,0.234,15.552,0.234c0.749,0,1.497-0.002,2.148-0.005    c0.748,0.003,1.496,0.005,2.245,0.005c4.957,0,10.19-0.079,15.553-0.234c0.003,0,0.006-0.001,0.009-0.001c0.008,0,0.016,0,0.024,0    c44.307-1.434,87.545-8.966,125.04-21.784c4.205-1.438,6.97-5.461,6.806-9.902C510.741,328.21,496.856,298.871,471.84,277.138z     M366.944,273h-9.16l-3.069-8.283c2.414,0.224,4.83,0.358,7.239,0.372c0.189,0.001,0.376,0.002,0.565,0.002    c2.484,0,4.983-0.132,7.486-0.365L366.944,273z M361.117,82.641c30.466,0,63.097,20.198,67.409,64.275h-19.601    c-27.295,0-36.393-17.16-38.532-22.42c-1.669-4.107-5.826-6.642-10.245-6.235c-4.359,0.397-7.956,3.566-8.911,7.824    c-0.657,1.614-4.952,6.711-14.423,12.7c-9.367,5.924-16.534,8.147-18.864,8.159h-22.426    C299.576,102.622,330.475,82.641,361.117,82.641z M295.075,185.738v-18.655h22.886c0.008,0,0.016,0,0.023,0    c10.614-0.024,30.136-9.492,42.359-20.9c9.768,11.533,25.802,20.873,48.581,20.873h20.081v18.683    c0,17.861-10.581,35.526-28.295,47.247c-11.823,7.809-25.547,12.05-38.626,11.964c-6.459-0.038-12.81-1.033-18.876-2.812    c-0.776-0.357-1.598-0.627-2.456-0.777C315.053,232.81,295.075,210.082,295.075,185.738z M154.213,328.577l-4.632-0.012    l-4.554,0.011l-3.056-8.27c2.418,0.226,4.837,0.362,7.251,0.378c0.19,0.001,0.378,0.002,0.569,0.002    c2.479,0,4.973-0.131,7.468-0.363L154.213,328.577z M82.344,195.125c0-37.876,35.424-58.314,68.755-58.314    c20.077,0,38.278,7.307,49.935,20.048c10.517,11.496,15.778,26.821,15.691,45.65h-51.505c-23.164,0-28.929-5.879-40.417-17.59    c-1.306-1.331-2.656-2.708-4.08-4.125c-1.902-1.894-4.463-2.935-7.106-2.935c-0.52,0-1.043,0.04-1.565,0.122    c-3.173,0.499-5.918,2.482-7.389,5.338c-7.425,14.419-13.675,18.019-22.32,18.918V195.125z M82.344,241.304v-18.872    c10.729-0.785,22.43-4.126,33.109-18.363c10.709,10.403,22.441,18.58,49.768,18.58h51.025v18.655    c0,17.879-10.58,35.555-28.304,47.282c-5.714,3.783-11.869,6.723-18.188,8.747c-0.056,0.019-0.113,0.036-0.169,0.056    c-6.666,2.116-13.514,3.209-20.225,3.156c-6.544-0.042-12.978-1.063-19.117-2.89c-0.372-0.159-0.753-0.293-1.142-0.407    c-0.115-0.035-0.229-0.072-0.346-0.103c-0.089-0.023-0.18-0.04-0.27-0.061c-0.023-0.005-0.045-0.01-0.068-0.016    C102.528,288.603,82.344,265.764,82.344,241.304z M149.557,429.355c-3.404,0.015-6.843-0.007-10.282-0.07l-5.578-15.357    l12.632-65.215l3.252-0.008l3.332,0.008l12.63,65.21l-5.597,15.362C156.503,429.348,153.034,429.372,149.557,429.355z     M181.71,428.386l3.713-10.192c0.625-1.715,0.771-3.569,0.425-5.362l-14.201-73.321l7.915-21.446    c15.429,2.718,30.983,7.68,45.068,15.207c0.642,0.458,1.341,0.857,2.106,1.164c0.02,0.008,0.041,0.013,0.062,0.021    c18.468,10.333,34.199,25.21,43.473,45.374c0.242,0.798,0.58,1.559,1.005,2.267c3.688,8.624,6.219,18.182,7.308,28.734    C248.966,420.197,215.873,426.185,181.71,428.386z M259.092,332.731c-4.833-4.2-10.102-8.076-15.703-11.641    c15.501-30.042,47.862-51.39,89.015-58.612l7.947,21.445l-14.226,73.312c-0.347,1.792-0.201,3.645,0.423,5.361l3.716,10.213    c-14.722-0.952-29.304-2.619-43.565-4.966C280.027,354.695,270.774,342.883,259.092,332.731z M362.317,373.761    c-3.353,0.015-6.757-0.006-10.296-0.065l-5.591-15.364l12.65-65.192h6.571l12.65,65.192l-5.591,15.364    c-2.784,0.046-5.509,0.07-8.149,0.07C363.846,373.766,363.13,373.765,362.317,373.761z M394.467,372.811l3.717-10.214    c0.624-1.716,0.77-3.569,0.423-5.362l-14.227-73.316l7.935-21.448c46.029,8.107,93.19,36.186,99.029,92.768    C461.748,364.595,428.654,370.59,394.467,372.811z"/>
		<path d="M40.252,356.492c2.583,0,5.166-0.988,7.133-2.962l0.141-0.142c3.927-3.939,3.915-10.315-0.024-14.241    c-3.938-3.925-10.315-3.916-14.242,0.025l-0.141,0.142c-3.926,3.939-3.915,10.315,0.025,14.241    C35.108,355.513,37.68,356.492,40.252,356.492z"/>
	</g>
</g>















</svg>
